<svg xmlns="http://www.w3.org/2000/svg" viewBox="0 0 36 28.5"><defs><style>.cls-1{fill:#ef562e;}</style></defs><title>Ресурс 4</title><g id="Слой_2" data-name="Слой 2"><g id="Слой_1-2" data-name="Слой 1"><path class="cls-1" d="M0,27a1.42,1.42,0,0,0,1.5,1.5h33A1.42,1.42,0,0,0,36,27V25.5H0Z"/><path class="cls-1" d="M33,22.5h3A17.85,17.85,0,0,0,19.5,4.65V3H21a1.42,1.42,0,0,0,1.5-1.5A1.42,1.42,0,0,0,21,0H15a1.42,1.42,0,0,0-1.5,1.5A1.42,1.42,0,0,0,15,3h1.5V4.65A17.85,17.85,0,0,0,0,22.5H33ZM18,7.5a15,15,0,0,1,14.7,12H3.3A15,15,0,0,1,18,7.5Z"/><path class="cls-1" d="M24.75,10.8,24,12.15a12.53,12.53,0,0,1,5.1,5.7l1.35-.6A13.23,13.23,0,0,0,24.75,10.8Z"/></g></g></svg>