<svg xmlns="http://www.w3.org/2000/svg" viewBox="0 0 16 16"><defs><style>.cls-1{fill:none;}.cls-2{fill:#ef562e;}</style></defs><title>Ресурс 2</title><g id="Слой_2" data-name="Слой 2"><g id="Слой_1-2" data-name="Слой 1"><path class="cls-1" d="M0,0H16V16H0Z"/><path class="cls-2" d="M4.41,7.19a10.1,10.1,0,0,0,4.39,4.39l1.47-1.47A.66.66,0,0,1,11,10a7.6,7.6,0,0,0,2.38.38A.67.67,0,0,1,14,11v2.33a.67.67,0,0,1-.67.67A11.33,11.33,0,0,1,2,2.67.67.67,0,0,1,2.67,2H5a.67.67,0,0,1,.67.67A7.57,7.57,0,0,0,6,5a.67.67,0,0,1-.17.68Z"/></g></g></svg>