<svg xmlns="http://www.w3.org/2000/svg" viewBox="0 0 16 16"><defs><style>.cls-1{fill:#ef562e;}.cls-2{fill:none;}</style></defs><title>Ресурс 1</title><g id="Слой_2" data-name="Слой 2"><g id="Слой_1-2" data-name="Слой 1"><path class="cls-1" d="M10,7.33v-4l-2-2-2,2V4.67H2V14H14V7.33ZM4.67,12.67H3.33V11.33H4.67Zm0-2.67H3.33V8.67H4.67Zm0-2.67H3.33V6H4.67Zm4,5.33H7.33V11.33H8.67Zm0-2.67H7.33V8.67H8.67Zm0-2.67H7.33V6H8.67Zm0-2.67H7.33V3.33H8.67Zm4,8H11.33V11.33h1.33Zm0-2.67H11.33V8.67h1.33Z"/><path class="cls-2" d="M0,0H16V16H0Z"/></g></g></svg>