<?xml version="1.0" encoding="UTF-8"?>
<!DOCTYPE svg PUBLIC "-//W3C//DTD SVG 1.1//EN" "http://www.w3.org/Graphics/SVG/1.1/DTD/svg11.dtd">
<!-- Creator: CorelDRAW 2019 (64-Bit) -->
<svg xmlns="http://www.w3.org/2000/svg" xml:space="preserve" width="44.675mm" height="47.9117mm" version="1.1" style="shape-rendering:geometricPrecision; text-rendering:geometricPrecision; image-rendering:optimizeQuality; fill-rule:evenodd; clip-rule:evenodd"
viewBox="0 0 3769.19 4042.27"
 xmlns:xlink="http://www.w3.org/1999/xlink">
 <defs>
  <style type="text/css">
   <![CDATA[
    .fil2 {fill:#FEFEFE}
    .fil1 {fill:#D9DADA}
    .fil0 {fill:#2B2A29}
    .fil9 {fill:#FCCC73}
    .fil10 {fill:#EF7F1A}
    .fil15 {fill:#AC2A21}
    .fil3 {fill:#17A540}
    .fil8 {fill:#E49154}
    .fil11 {fill:#FEFEFE;fill-rule:nonzero}
    .fil12 {fill:#FEFEFE;fill-rule:nonzero}
    .fil4 {fill:#2B2A29;fill-rule:nonzero}
    .fil6 {fill:#2B2A29;fill-rule:nonzero}
    .fil13 {fill:#E31E24;fill-rule:nonzero}
    .fil14 {fill:#AC2A21;fill-rule:nonzero}
    .fil5 {fill:#17A540;fill-rule:nonzero}
    .fil7 {fill:#FFD1A1;fill-rule:nonzero}
   ]]>
  </style>
 </defs>
 <g id="Слой_x0020_1">
  <metadata id="CorelCorpID_0Corel-Layer"/>
  <g id="_2734859830208">
   <g>
    <path class="fil0" d="M562.99 1675.17c111.18,626.54 750.84,1035.14 1428.7,912.68l0 0c677.88,-122.46 1137.26,-729.62 1026.08,-1356.16l0 0c-111.19,-626.53 -750.84,-1035.15 -1428.72,-912.69l0 0c-677.86,122.46 -1137.25,729.65 -1026.06,1356.17l0 0z"/>
    <path class="fil1" d="M680.02 1652.27c109.81,613.24 695.95,1021.32 1309.18,911.51l0 0c613.24,-109.82 1021.34,-695.94 911.52,-1309.19l0 0c-109.81,-613.22 -695.95,-1021.33 -1309.19,-911.51l0 0c-613.23,109.81 -1021.32,695.96 -911.51,1309.19l0 0z"/>
    <path class="fil2" d="M745.21 1636.46c110.65,605.15 668.28,1013.75 1245.51,912.66l0 0c577.25,-101.08 955.48,-673.57 844.82,-1278.72l0 0c-110.65,-605.14 -668.28,-1013.76 -1245.53,-912.67l0 0c-577.22,101.08 -955.46,673.6 -844.81,1278.73l0 0z"/>
    <path class="fil3" d="M911.43 1681.32c125.86,485.43 621.4,776.91 1106.82,651.05l0 0c485.44,-125.86 776.93,-621.4 651.07,-1106.83l0 0c-125.86,-485.43 -621.4,-776.92 -1106.85,-651.06l0 0c-485.42,125.86 -776.91,621.41 -651.04,1106.84l0 0z"/>
   </g>
   <path class="fil4" d="M866.16 3936.92c-36.83,0 -53.39,-16.17 -49.67,-48.66 1.34,-11.81 6.72,-30.57 16.12,-56.46 9.43,-25.82 14.71,-43.64 15.82,-53.49 1.7,-14.76 -2.64,-22.15 -13.08,-22.15 -10.34,0 -20.54,8.27 -30.64,24.65 -2.87,4.67 -5.43,9.72 -7.63,15.17l-45.04 138.42 -62.15 0 48.58 -148.92c1.24,-3.38 2.09,-6.98 2.51,-10.77 1.44,-12.66 -2.07,-18.92 -10.55,-18.92 -8.5,0 -16.22,3.96 -23.07,11.86 -6.87,7.91 -12.48,17.39 -16.85,28.32l-45.04 138.42 -62.12 0 70.29 -215.72 62.2 0 -7.24 22.3c16.16,-16.25 34.63,-24.39 55.48,-24.39 25.4,0 38.71,12.38 40.02,37.03 18.6,-24.44 40.02,-36.59 64.19,-36.59 13.59,0 24.55,3.75 32.79,11.37 8.29,7.54 11.6,18.68 9.95,33.28 -1.68,14.6 -5.97,31.42 -12.98,50.54l-14.88 42.15c-3.33,9.12 -5.27,16.54 -5.91,22.3 -1.43,12.35 3.12,18.53 13.62,18.53 9.71,0 17.54,-3.08 23.44,-9.28 5.86,-6.18 12.09,-15.81 18.65,-28.81l18.14 0c-14.34,31.71 -30.31,53.98 -48.12,66.72 -12.19,8.77 -24.47,13.08 -36.84,13.08zm319.18 -166.38c-19.49,18.27 -46.39,30.2 -80.52,35.81 -7.88,39.33 -22.74,70.75 -44.7,94.34 -22,23.59 -46.34,35.38 -73.16,35.38 -33.15,0 -53.13,-12.23 -59.89,-36.59 -2.33,-8.63 -2.98,-18.06 -1.79,-28.47 1.19,-10.36 3.26,-20.93 6.29,-31.71 2.94,-10.72 7.03,-21.81 12.04,-33.15 11.58,-25.74 26.33,-46.6 44.5,-62.56 21.57,-19.13 45.99,-28.69 73.23,-28.69 36.89,0 52.74,23 47.49,68.86l-0.05 0.44c1.39,0.29 3.77,0.44 7.15,0.44 7.7,0 17.89,-2.46 30.59,-7.42 12.71,-4.88 24.86,-11.06 36.36,-18.48l2.46 11.79zm-116.49 37.03c-7.52,-1.94 -10.67,-8.32 -9.43,-19.12 1.24,-10.86 6.59,-18.27 16.05,-22.36 0.46,-9.15 -0.24,-15.61 -2.09,-19.35 -1.86,-3.8 -6.2,-5.74 -12.95,-5.74 -13.23,0 -27.46,14.6 -42.89,43.69 -15.4,29.2 -24.39,55.09 -26.97,77.68 -1.58,13.88 -1.38,22.71 0.73,26.46 2.09,3.67 4.55,6.05 7.26,7.03 2.69,1.01 6.39,1.45 11.19,1.45 9.85,0 20.54,-8.63 32.23,-25.89 11.65,-17.24 20.65,-38.53 26.9,-63.85zm94.44 113.98l-34.36 105.12 -66.88 15.61 110.85 -339.62 62.12 0 -10.59 32.43c15.71,-12.28 33.15,-18.48 52.43,-18.48 24.86,0 39.69,11.94 44.57,35.81 1.65,8.71 1.84,18.71 0.54,29.98 -1.27,11.29 -3.22,22.66 -5.89,33.95 -2.58,11.3 -6.18,22.59 -10.72,33.93 -4.5,11.29 -9.97,22.14 -16.41,32.51 -6.43,10.44 -14.11,19.63 -22.86,27.67 -8.77,8.14 -18.86,14.52 -30.1,19.35 -11.35,4.75 -24.96,7.1 -41.09,7.1 -16.02,0 -26.62,-5.09 -31.6,-15.37zm99.61 -138.2c2.74,-23.88 -3.18,-35.81 -17.65,-35.81 -4.88,0 -10.23,1.79 -16.05,5.32 -5.79,3.44 -11.14,8.84 -16.07,15.97l-39.22 120.72c1.75,6.61 7.49,9.92 17.26,9.92 9.8,0 18.97,-4.11 27.65,-12.23 16.87,-16.05 29.12,-38.91 36.9,-68.68 3.59,-13.23 6.02,-24.94 7.18,-35.22zm244.29 73.77c-40.15,53.2 -81.63,79.8 -124.27,79.8 -46.95,0 -68.58,-16.17 -64.85,-48.66 2.07,-18.27 11.79,-34.03 29.2,-47.39 7.42,-5.76 15.27,-10.93 23.72,-15.61 8.35,-4.6 16.23,-9.36 23.57,-14.32 17.1,-11.21 26.48,-23.51 28.01,-36.87 1.52,-13.31 -4.32,-20 -17.55,-20 -18.55,0 -35.81,14.96 -51.65,44.86l-20.86 0c12.55,-26.95 27.08,-47.65 43.41,-62.25 16.33,-14.52 37.16,-21.78 62.48,-21.78 25.22,0 41.34,8.76 48.29,26.31 2.4,6.18 3.13,13.67 2.12,22.43 -1,8.84 -3.17,16.62 -6.48,23.51 -3.31,6.9 -7.37,13.03 -12.25,18.35 -7.8,8.68 -19.38,17.55 -34.57,26.51l-17.83 10.6c-13.05,7.39 -21.71,13.88 -25.87,19.48 -4.08,5.53 -6.51,10.86 -7.08,15.9 -1.73,15.17 7.34,22.71 27.26,22.71 19.84,0 39.25,-7.62 58.35,-22.95 6.98,-5.6 14.28,-12.5 22.11,-20.62l14.73 0zm237.63 -86.59c-19.48,18.27 -46.39,30.2 -80.51,35.81 -7.89,39.33 -22.75,70.75 -44.71,94.34 -21.99,23.59 -46.34,35.38 -73.16,35.38 -33.15,0 -53.13,-12.23 -59.89,-36.59 -2.33,-8.63 -2.97,-18.06 -1.78,-28.47 1.19,-10.36 3.26,-20.93 6.28,-31.71 2.94,-10.72 7.03,-21.81 12.04,-33.15 11.58,-25.74 26.33,-46.6 44.5,-62.56 21.58,-19.13 46,-28.69 73.23,-28.69 36.9,0 52.74,23 47.49,68.86l-0.05 0.44c1.39,0.29 3.77,0.44 7.15,0.44 7.7,0 17.89,-2.46 30.6,-7.42 12.71,-4.88 24.86,-11.06 36.35,-18.48l2.46 11.79zm-116.49 37.03c-7.52,-1.94 -10.67,-8.32 -9.43,-19.12 1.24,-10.86 6.59,-18.27 16.05,-22.36 0.46,-9.15 -0.23,-15.61 -2.09,-19.35 -1.86,-3.8 -6.2,-5.74 -12.94,-5.74 -13.23,0 -27.47,14.6 -42.89,43.69 -15.41,29.2 -24.4,55.09 -26.98,77.68 -1.58,13.88 -1.37,22.71 0.73,26.46 2.09,3.67 4.55,6.05 7.26,7.03 2.69,1.01 6.39,1.45 11.2,1.45 9.85,0 20.54,-8.63 32.22,-25.89 11.65,-17.24 20.65,-38.53 26.9,-63.85zm225.46 -2.07c0.98,4.88 0.79,13.23 -0.55,24.93 -1.34,11.74 -5.06,24.16 -11.24,37.32 -6.1,13.1 -14.16,24.75 -24.19,34.89 -21.94,22.3 -48.39,33.44 -79.46,33.44 -23.72,0 -40.75,-6.98 -51.16,-21.06 -10.41,-14.03 -14.32,-32.66 -11.68,-55.87 2.66,-23.3 12.04,-54.16 28.09,-92.64 17.41,-41.83 37.26,-77.08 59.43,-105.76 26.04,-33.57 51.37,-50.34 75.95,-50.34 13.46,0 23.98,4.55 31.57,13.59 7.68,9.07 10.21,24.73 7.65,47.11 -2.53,22.3 -13.44,48.88 -32.51,79.59l-14.37 22.37c5.84,3.08 10.72,7.34 14.78,12.87 18.99,0 40.51,-5.84 64.55,-17.54 6.72,-3.23 12.53,-6.41 17.57,-9.64l2.62 11.79c-18.84,17.7 -44.56,29.35 -77.05,34.96zm-114.06 54.34c-2.84,25.04 4.52,37.47 22.06,37.47 13.28,0 24.78,-6.25 34.32,-18.69 9.58,-12.53 15.11,-25.24 16.59,-38.26 1.49,-13 1.21,-22 -0.7,-27.11 -4.67,1.73 -10.12,2.58 -16.46,2.58 -6.33,0 -11.29,-1.86 -14.98,-5.61 -3.67,-3.72 -5.15,-8.39 -4.52,-14.01 1.11,-9.56 4.55,-16.33 10.23,-20.36 5.74,-3.96 13.38,-6.33 23.02,-7.03 15.91,-23.88 27.98,-48.97 36.25,-75.43 2.66,-8.99 4.52,-17.7 5.48,-26.18 0.98,-8.5 0.51,-14.47 -1.32,-17.9 -1.84,-3.47 -5.17,-5.2 -10.01,-5.2 -8.83,0 -19.07,9.15 -30.88,27.42 -19.48,30.33 -38.3,75.43 -56.54,135.24 -6.93,22.87 -11.14,40.55 -12.55,53.05zm436.53 -2.72c-24.18,53.2 -53.74,79.8 -88.76,79.8 -16.54,0 -28.71,-4.37 -36.38,-13.23 -7.7,-8.92 -10.91,-19.2 -9.57,-30.98 1.32,-11.66 7.11,-32.64 17.35,-63l20.65 -61.32 -51.58 28.04c5.61,10.65 7.29,26.02 4.99,46.18 -2.28,19.89 -12.12,39.69 -29.7,59.38 -20.65,23.31 -46.48,34.94 -77.54,34.94 -19.77,0 -34.47,-4.81 -44.01,-14.52 -9.58,-9.69 -13.38,-23.24 -11.39,-40.62 0.9,-7.75 2.84,-15.97 5.76,-24.65l44.21 -138.42 59.62 0 -49.36 151.86c-1.14,2.51 -1.97,6.54 -2.58,12.01 -1.35,11.79 4.24,17.68 16.69,17.68 12.51,0 24.21,-6.98 35.04,-21.06 11.01,-14.17 17.7,-30.98 19.93,-50.55 0.83,-7.13 -0.7,-12.58 -4.45,-16.41 -3.7,2.67 -7.8,3.96 -12.4,3.96 -4.52,0 -8.84,-1.37 -12.9,-4.16 -3.85,-2.94 -5.42,-7.78 -4.67,-14.44 0.78,-6.69 3.91,-11.58 9.53,-14.83 5.56,-3.23 11.4,-4.88 17.52,-4.88 6.1,0 11.7,0.88 16.82,2.53 11.26,-4.75 21.67,-9.58 31.23,-14.55l56.16 -30.9c9.46,-5.4 19.63,-10.81 30.47,-16.26l26.75 0 -34.94 107.01 -11.55 33.28c-2.84,8.27 -4.37,14.32 -4.81,18.11 -1.39,12.09 3.67,18.11 15.19,18.11 8.68,0 16.05,-3.36 22.01,-10.13 5.92,-6.54 12.1,-15.89 18.55,-27.96l18.11 0zm92.66 -228.17c17.99,0 26,8.19 24.11,24.68 -0.95,8.4 -5.11,14.88 -12.53,19.33 4.39,1.16 10.07,1.73 17.05,1.73 31.34,0 55.51,-16.9 72.36,-50.54l18.14 0c-17.96,39.4 -41.5,62.84 -70.57,70.1 -9.25,2.22 -20.82,3.38 -34.7,3.38 -13.93,0 -25.43,-3.31 -34.52,-10 -8.99,-6.69 -12.99,-15.17 -11.8,-25.53 1.16,-10.28 4.67,-18.4 10.59,-24.29 5.84,-5.91 13.18,-8.87 21.89,-8.87zm-53.77 247.29c-1.45,12.66 2.14,18.97 10.7,18.97 15.17,0 28.14,-12.71 38.86,-38.09l45.15 -138.42 62.12 0 -47.73 146.62c-1.79,4.88 -3,10 -3.59,15.17 -1.14,9.85 4.21,14.73 16,14.73 3.1,0 7.96,-0.93 14.62,-2.72 -2.71,15.61 -9.32,26.87 -19.77,33.93 -10.44,6.97 -21.6,10.49 -33.54,10.49 -11.94,0 -21.11,-3.52 -27.62,-10.62 -6.54,-7.05 -9.72,-17.18 -9.64,-30.2 -19.94,27.23 -42.92,40.83 -68.86,40.83 -12.94,0 -23.41,-4.08 -31.47,-12.23 -7.93,-8.11 -10.88,-21.26 -8.82,-39.4 0.94,-8.12 3.16,-17.55 6.59,-28.17l45.1 -138.42 62.2 0 -47.75 146.62c-1.27,3.67 -2.12,7.34 -2.53,10.93zm331.76 37.11c-16.85,15.73 -34.99,23.56 -54.47,23.56 -26.17,0 -42.33,-12.28 -48.48,-36.87 -2.24,-8.84 -2.68,-18.92 -1.39,-30.21 1.29,-11.29 3.59,-22.59 6.83,-33.92 3.22,-11.3 7.54,-22.59 12.92,-33.8 11.84,-24.73 27.03,-45.17 45.53,-61.27 18.55,-16.17 39.67,-24.24 63.26,-24.24 12.35,0 21.03,2.02 26.04,6.2 4.96,4.16 7.14,9.33 6.41,15.66l-0.31 2.53 7.24 -22.3 62.11 0 -65.63 200.11c13.59,-4.31 25.12,-11.01 34.65,-19.92 9.48,-8.92 18.43,-22.87 26.75,-41.76l18.11 0c-15.14,37.03 -36.48,61.48 -63.95,73.26 -7.54,3.23 -14.73,5.69 -21.52,7.42l-10.06 31.14c-8.68,27.67 -21.91,47.67 -39.69,59.89 -13.1,8.92 -27.5,13.44 -43.1,13.44 -15.52,0 -27.65,-3.47 -36.25,-10.36 -8.66,-6.83 -12.06,-17.91 -10.34,-33.08 3,-26.22 28.81,-47.15 77.49,-62.76l7.85 -22.71zm50.28 -154.03c0.75,-6.39 -1.73,-11.14 -7.44,-14.08 -2.17,-1.24 -4.96,-1.89 -8.47,-1.89 -9.07,0 -17.99,4.26 -26.52,12.82 -20.62,20.7 -35.43,50.33 -44.52,88.94 -1.39,5.89 -2.37,12.15 -3.15,18.76 -1.45,12.74 0.2,21.65 4.94,26.75 2.73,3.1 6.38,4.6 10.85,4.6 7.98,0 15.79,-3 23.39,-9.12 7.52,-6.1 13.36,-14.32 17.34,-24.6l33.59 -102.17zm-65.01 198.45c-29.25,10.15 -44.68,22.37 -46.34,36.69 -0.65,5.74 1.6,10.05 6.74,12.87 1.71,0.78 4.4,1.21 7.83,1.21 3.54,0 7.99,-3.1 13.29,-9.36 5.4,-6.25 10.17,-15.89 14.55,-28.96l3.93 -12.45zm426.69 -23.36l7.26 -131.66 -8.58 27.18c-5.48,17.26 -10.62,32.56 -15.35,45.79 -4.76,13.31 -10.13,24.4 -16.05,33.39 -11.94,18.53 -28.19,27.8 -48.68,27.8 -12.51,0 -22,-3.23 -28.61,-9.69 -6.5,-6.4 -10.85,-14.38 -12.87,-23.79 -25.53,14.44 -54.16,24.52 -85.79,30.13 -9.9,1.7 -19.57,2.51 -28.96,2.51 -20.93,0 -36.85,-5.4 -47.84,-16.17 -10.98,-10.86 -15.27,-27.03 -12.82,-48.53 2.48,-21.58 7.39,-40.7 14.78,-57.47 29.61,-65.99 70.05,-98.99 121.32,-98.99 36.89,0 52.74,23 47.49,68.86 -5.66,49.62 -22.66,89.46 -50.91,119.67 16.57,-5.2 30.83,-11.22 42.72,-18.14 1.37,-9.62 4.65,-17.11 9.82,-22.43 5.2,-5.25 11.5,-7.83 19.12,-7.83 7.58,0 13.18,2.02 16.8,6.18 3.54,4.18 4.99,9.72 4.21,16.62 -0.8,6.97 -3.12,12.09 -6.92,15.4 -3.86,3.31 -7.96,4.65 -12.4,4.08 -0.67,3.23 -0.08,6.82 1.73,10.65 1.83,3.87 6.43,5.81 13.93,5.81 12.71,0 23.45,-9.12 32.17,-27.39 4.05,-8.39 7.8,-17.83 11.21,-28.24l45.4 -139.44 60.47 0 -9.85 165.58 99.15 -165.58 64.29 0 -48.4 146.62c-1.65,5.17 -2.84,10.36 -3.41,15.38 -1.11,9.71 4.26,14.52 16.05,14.52 4.11,0 7.08,-0.29 8.94,-0.85l5.24 -1.86c-2.87,14.44 -9.25,25.45 -19.02,33.07 -9.8,7.55 -20.93,11.35 -33.51,11.35 -12.56,0 -22.46,-4.08 -29.66,-12.23 -7.29,-8.11 -9.8,-21.26 -7.73,-39.4 0.73,-6.31 3.64,-17.55 8.87,-33.65l15.68 -48.45 -78.84 131.22 -60.47 0zm-175.14 -73.13c13.98,-24.96 22.77,-53.41 26.41,-85.27 1.38,-12.09 1.24,-20.92 -0.49,-26.53 -1.65,-5.61 -6.1,-8.48 -13.2,-8.48 -13.67,0 -28.11,14.6 -43.54,43.69 -15.4,29.2 -24.39,55.09 -26.97,77.68 -1.58,13.88 -1.37,22.71 0.73,26.46 2.09,3.67 4.55,6.05 7.26,7.03 2.69,1.01 6.59,1.45 11.84,1.45 5.2,0 11.29,-3.23 18.22,-9.64 7,-6.45 13.62,-15.25 19.77,-26.38z"/>
   <g>
    <path class="fil5" d="M3317.86 3115.49c0,1.96 -0.97,3.91 -2.94,5.87 -16.85,28.89 -71.19,117.8 -143.87,151.67 -46.53,21.67 -111.5,28.76 -134.86,15.03 -45.02,71.47 -131.55,85.54 -179.19,80.03 -126.42,-14.62 -65.26,-179.12 -2.02,-237.05 -32.83,-180.65 259.55,-263.2 294.54,-143.01 25.1,86.22 -41.28,231.95 -89.8,274.26 18.89,11.34 70.25,8.18 103.39,-7.68 77.11,-36.89 144.89,-149.42 144.47,-149.42 6.86,0 10.28,3.43 10.28,10.28zm-353.45 141.55c-32.31,-21.56 -72.43,-46.53 -89.09,-74.92 -25.83,33.67 -47.51,117.86 -6.01,135.45 31.48,13.35 82.42,-33.63 95.09,-60.53zm21.88 -279.02c-19.74,0.95 -36.49,13.51 -50.21,24.39 -34.3,27.18 -49.31,50.67 -47.63,94.39 15.67,-18.59 33.52,-24.41 49.19,-24.41 14.69,0 25.45,4.89 32.31,14.68 0,0.98 0,3.43 0,7.35 0.98,2.94 1.47,5.38 1.47,7.34 0,2.94 -4.89,4.4 -14.7,4.4 -17.62,0 -38.94,20.9 -57.99,45.49 20.46,37.67 53.52,48.68 85.85,72.18 17.71,-26.06 27.88,-47.12 38.99,-78.46 17.39,-49.11 50.17,-171.58 -37.28,-167.35z"/>
    <path class="fil5" d="M1255.56 3289.28c-22.73,30.57 -45.53,51.71 -68.4,63.45 -22.86,11.73 -43.2,14.84 -60.98,9.35 -17.78,-5.49 -32.25,-19.46 -43.42,-41.93 -11.16,-22.48 -16.49,-53.11 -15.97,-91.9 -0.14,-18.83 3.1,-32.27 9.7,-40.31 6.6,-8.04 14.26,-12.78 22.95,-14.22 8.7,-1.44 16.87,-0.06 24.51,4.13 7.64,4.19 12.98,9.52 16.04,15.95 -8.89,42.17 -11.1,75.29 -6.61,99.36 4.48,24.06 13.65,37.45 27.49,40.11 13.84,2.67 21.86,-12.44 42.4,-32.23 20.55,-19.78 41.78,-52.44 64.21,-97.73 56.41,-114.13 75.68,-221.77 208.57,-263.69l-8.93 60.11c-109.78,27.72 -86.39,106.09 -211.56,289.56z"/>
    <path class="fil5" d="M862.37 3190.46c-3.57,-11.07 -6.45,-23.01 -8.64,-35.82 -45.93,125.68 -101.29,195.85 -166.08,210.53 -38.62,8.75 -63.29,-2.13 -74.03,-32.64 -16.41,-46.66 -5.05,-110.02 34.04,-190.07 41.22,-84.39 86.04,-160.6 203.6,-199.63 20.93,-6.95 48.47,-5.59 78.17,-1.16l-67.07 248.79zm0.78 -202.37c-116.78,27.88 -223.23,334.14 -157.92,329.5 28.04,-1.98 55.67,-34.89 84.75,-86.03 13.32,-26.57 132.95,-257.73 73.17,-243.46z"/>
    <path class="fil5" d="M1871.38 3190.46c-3.57,-11.07 -6.45,-23.01 -8.64,-35.82 -45.93,125.68 -101.29,195.85 -166.08,210.53 -38.62,8.75 -63.29,-2.13 -74.03,-32.64 -16.4,-46.66 -5.05,-110.02 34.04,-190.07 41.22,-84.39 86.04,-160.6 203.6,-199.63 20.94,-6.95 48.47,-5.59 78.17,-1.16l-67.07 248.79zm0.78 -202.37c-116.78,27.88 -223.24,334.14 -157.93,329.5 28.04,-1.98 55.67,-34.89 84.76,-86.03 13.31,-26.57 132.94,-257.73 73.17,-243.46z"/>
    <path class="fil5" d="M1102.34 3222.67c-0.67,4.85 -4.52,11.23 -11.55,19.16 -52.24,62.93 -98.62,101.48 -139.13,115.63 -18.67,6.3 -36.57,5.85 -54.2,5.82 -64.02,-0.09 -93.7,-48.97 -69.49,-153.46 1.11,-4.78 76.4,-208.64 100.64,-271.64l106.75 1.1c-8.54,27.55 -80.93,209.99 -96.17,269.2 -22.69,88.04 -19.13,164.17 86.71,68.09 45.8,-41.59 70.17,-62.18 73.08,-61.78 2.91,0.4 4.02,3.03 3.35,7.88z"/>
    <path class="fil5" d="M2111.36 3222.67c-0.67,4.85 -4.52,11.23 -11.55,19.16 -52.23,62.93 -98.61,101.48 -139.13,115.63 -18.67,6.3 -36.57,5.85 -54.2,5.82 -64.02,-0.09 -93.7,-48.97 -69.49,-153.46 1.11,-4.78 76.4,-208.64 100.64,-271.64l106.75 1.1c-8.54,27.55 -80.92,209.99 -96.17,269.2 -22.69,88.04 -19.13,164.17 86.71,68.09 45.8,-41.59 70.17,-62.18 73.08,-61.78 2.91,0.4 4.02,3.03 3.35,7.88z"/>
    <path class="fil5" d="M2823.47 3223.72c-0.66,4.84 -4.52,11.23 -11.55,19.15 -52.23,62.94 -98.61,101.49 -139.13,115.63 -18.67,6.31 -36.58,5.86 -54.2,5.83 -30.35,-0.04 -52.98,-11.06 -65.81,-33.76 -24.91,-44.1 -8.29,-77.21 6.43,-119.95 7.33,-21.3 13.25,-39.7 16.52,-52.4 20.05,-77.83 33.06,-130.38 -38.54,-74.62 -54.11,42.12 -85.49,99.37 -111.79,160.26 -25.73,43.21 -47.97,86.41 -59.72,119.28l-10.01 0c57.27,-91.52 99.63,-305.92 237.05,-353.9 18.67,-6.3 36.78,-8.52 54.2,-5.82 137.59,21.29 2.16,201.74 -0.66,282.33 -1.59,45.44 22.91,62.58 100.79,-8.12 45.8,-41.58 78.59,-71.38 81.49,-70.98 2.91,0.4 -4.4,12.24 -5.06,17.08z"/>
    <path class="fil5" d="M2314.41 2939.25c-4.88,13.58 -20.88,57.42 -40.99,112.28 0.97,-1.91 1.94,-3.81 2.93,-5.69 23.69,-45.27 54.1,-83.1 96.54,-101.82 18.67,-6.31 36.57,-5.86 54.19,-5.83 64.03,0.1 93.71,48.98 69.49,153.47 -1.11,4.78 -76.4,208.64 -100.64,271.64l-106.75 -1.1c8.54,-27.55 80.92,-209.99 96.17,-269.2 20.05,-77.83 27.81,-128.27 -43.8,-72.52 -82.21,64.01 -111.99,162.92 -151.1,256.48 -14.91,40.29 -26.8,72.16 -32.25,86.33l-106.75 -1.1c8.18,-26.37 133.76,-356.68 152.82,-422.94l110.15 0z"/>
    <path class="fil5" d="M1647.22 3224.78c-0.67,4.84 -4.52,11.23 -11.55,19.15 -52.24,62.94 -98.61,101.49 -139.13,115.63 -18.67,6.31 -36.57,5.86 -54.2,5.83 -64.02,-0.1 -93.7,-48.98 -69.49,-153.47 1.11,-4.78 76.4,-208.64 100.64,-271.64l106.75 1.11c-8.54,27.55 -80.92,209.98 -96.17,269.19 -22.69,88.05 -19.13,164.18 86.71,68.1 45.8,-41.59 70.17,-62.18 73.08,-61.78 2.91,0.4 4.02,3.04 3.35,7.89z"/>
    <g>
     <path class="fil5" d="M2370.25 2820.38c-10.72,5.97 -19.58,15.18 -26.44,27.91 -2.94,6.85 -4.4,16.16 -4.4,27.91 0,11.74 -1.48,20.56 -4.4,26.44l-5.88 4.4c-9.79,6.85 -13.95,-0.24 -12.49,-21.3 1.47,-21.05 6.13,-38.92 13.95,-53.61 9.8,-22.53 26.44,-39.66 49.95,-51.41 43.08,-25.46 99.88,-35.26 170.38,-29.38 17.63,0 76.88,8.32 177.73,24.96 61.69,10.77 102.32,10.77 121.91,0 11.74,-6.85 20.07,-15.67 24.96,-26.43 5.88,-12.73 7.1,-24.48 3.67,-35.25 -3.43,-10.77 -3.18,-20.08 0.74,-27.91 1.96,-0.99 2.94,-1.47 2.94,-1.47 4.39,-2.75 56.76,101.06 -29.59,152.44 -113.62,67.61 -349.92,-91.46 -483.03,-17.31z"/>
     <path class="fil3" d="M2867.91 2667.04c18.44,16.95 21.57,43.59 6.98,59.45 -14.6,15.9 -41.4,15.02 -59.85,-1.93 -18.45,-16.95 -21.55,-43.57 -6.95,-59.46 14.6,-15.89 41.4,-15.01 59.83,1.94z"/>
    </g>
    <path class="fil5" d="M496.88 2924.45c-24.18,-6 -41.68,-24.73 -52.14,-57.36 -14.03,-43.71 -12.63,-69.77 4.2,-78.13 6.56,-3.26 11.42,0.06 14.57,9.88 1.05,3.29 2.17,8.45 3.33,15.46 1.16,7.03 2.27,12.19 3.32,15.46 73.87,230.29 255,-204.62 168.42,-292.98 -29.99,-30.62 -94.01,-45.53 -203.25,58.72 -324.17,309.42 -397.18,956.87 -39.32,768.56 79.34,-41.76 149.04,-100.2 216.53,-171.18 19.03,-20.02 42.06,-36.01 59.98,-59.03l13.84 -14.72c-12.81,20.87 -26.47,41.39 -41.8,60.87 -120.52,153.67 -358.07,357.62 -529.75,254.03 -183.55,-123.53 -124.78,-441.7 20.7,-679.37 96.29,-157.31 227.15,-286.87 418.4,-302.35 339.73,-27.5 136.06,520.06 -57.02,472.15z"/>
    <path class="fil3" d="M491.33 2769.11c31.5,0 56.1,26.17 54.92,58.46 -1.17,32.28 -27.66,58.46 -59.17,58.46 -31.5,0 -56.09,-26.18 -54.92,-58.46 1.17,-32.29 27.66,-58.46 59.17,-58.46z"/>
    <path class="fil5" d="M3705.9 2404.22c37.9,-3.86 58.72,10.88 62.6,45.37 6.8,60.57 -36.71,151.08 -130.53,271.51 -60.4,76.64 -132.86,148.25 -217.39,214.81 -27.32,56.53 -58.05,121.67 -75.2,181.71 21.16,-38.09 46.99,-74.5 77.46,-109.21 40.64,-46.56 72.53,-53.94 103.85,-53.94 11.2,0 46.39,3.74 61.39,12.54 77.92,45.73 20.81,201.5 -10.55,259.95 -89.6,167.05 -168.14,212.26 -348.08,262.55 -123.92,34.63 -282.36,61.32 -333.35,64.69 -509.6,33.76 -1646.79,-78.89 -2429.06,45.81 -55.88,8.9 -132.61,21.29 -167.4,45.27 -16.28,11.22 -22.96,29.04 -22.96,50.15 0,21.12 22.01,41.82 6.73,52.38l-30.62 7.92c-50.78,13.14 -72.67,-0.46 -65.03,-38.27 7.64,-37.81 33.42,-67.74 72.69,-96.33 52.62,-38.31 138.31,-68.25 260.14,-92.38 543.04,-107.53 1515.1,-93.26 2070.87,-71.94 334.2,12.82 900.2,93.41 917.73,-393.36 1,-27.91 -9.99,-57.89 -22.69,-57.89 -27.93,0 -61.36,18.65 -108.12,95.56 -43.82,72.08 -67.62,177.93 -67.62,213.49 0,9.32 3.18,16.52 9.53,21.59 6.35,5.08 9.53,9.31 9.53,12.71 0,3.38 -2.12,5.08 -6.35,5.08 -31.33,0 -90.71,-33.43 -95.24,-78.92 -20.31,-203.74 222.16,-844.76 477.66,-870.84zm41.17 70.78c-1.98,-17.66 -10.17,-26.12 -24.57,-25.35 -21.88,2.46 -52.06,42.98 -94.16,85.19 -95.05,110.89 -142.42,217.07 -193.37,358.58 56.6,-42.13 120.06,-106.77 190.35,-193.89 84.77,-102.38 125.35,-177.22 121.74,-224.52z"/>
   </g>
   <g>
    <path class="fil6" d="M2181.19 2448.38c6.12,-4.23 10.93,-10.3 14.34,-18.38 1.38,-4.31 1.72,-10.01 1.05,-17.1 -0.68,-7.1 -0.3,-12.5 1.12,-16.22l3.29 -3c5.52,-4.7 8.44,-0.65 8.77,12.14 0.33,12.79 -1.44,23.84 -5.32,33.17 -4.61,14.16 -13.66,25.47 -27.17,33.92 -24.53,17.86 -58.25,27.07 -101.14,27.6 -10.64,1.02 -46.88,-0.57 -108.73,-4.79 -37.86,-2.93 -62.38,-0.57 -73.59,7.06 -6.69,4.81 -11.2,10.61 -13.54,17.4 -2.81,8.02 -2.87,15.19 -0.18,21.49 2.69,6.31 3.09,11.94 1.17,16.89 -1.12,0.71 -1.69,1.05 -1.69,1.05 -2.49,1.92 -40.11,-57.72 9.04,-93.73 64.67,-47.39 216.51,34.96 292.57,-17.5z"/>
    <path class="fil0" d="M1889.66 2569.72c-12.1,-9.17 -15.53,-25.07 -7.63,-35.48 7.88,-10.44 24.11,-11.47 36.23,-2.3 12.09,9.17 15.53,25.07 7.63,35.5 -7.89,10.42 -24.11,11.45 -36.23,2.28z"/>
   </g>
   <path class="fil2" d="M1287.47 1104.75c-50.75,27.72 -130.85,65.93 -189.05,53.68 -107.21,-22.56 -204.36,-70.22 -236.07,-178.69 -9.53,-32.62 32.31,-159.64 50.03,-200.6 8.47,-19.59 -61.14,-48.95 -0.02,-190.24 53.47,-123.62 150.59,-73.76 216.55,-155.07 14.78,-18.23 28.01,-43.07 38.83,-77.92 27.32,-88.09 91.68,-184.87 193.99,-163.35 46.97,9.89 116.55,-29.15 176.42,-72.26 104.59,-75.32 309.35,-166.8 391.73,2.44 9.1,18.71 42.24,58.58 74.36,53.98 179.39,-25.67 305.86,191.86 273.55,345.44 -19.08,90.67 -107.05,347.58 -216.15,325.27 -48.21,-9.86 -361.34,17.51 -411.55,40.79 -65.67,30.45 -122.38,47.95 -180.02,108.68 -52.48,55.3 -82.92,28.96 -151.92,100.67 -2.48,2.58 -28.84,6.17 -30.69,7.18z"/>
   <path class="fil1" d="M1622.46 608.71c-9.53,2.19 -61.57,-62.53 -102.51,-133.95 -40.95,-71.47 -58.32,-95.98 -78.94,-145.74 -218.83,-51.52 -251.3,106.03 -211.97,243.51 27.45,95.94 78.47,159.98 139.37,148.31 13.14,-2.51 -28.96,22.83 -27.92,26.29 -0.38,0.23 -92.16,-41.64 -149.72,-88.72 -28.46,-23.29 -11.38,-99.83 -17.93,-98.6 -354.92,66.46 -100.11,305.42 48.82,359.41l0 10.92c-42.52,4.44 -96.43,7.75 -141.32,-4.31 -55.04,-14.8 -87.06,-94.67 -99.06,-84.61 -9.74,8.18 -16.07,22.13 -16.64,42.12 -8.61,308.79 252.22,274.75 348.42,93.12l1.48 -0.68 0 13.14c-39.35,60.52 -113,177.66 -172.32,173.57 -232.09,-15.98 -206.54,-68.29 -247.09,-170.92 -20.21,-51.18 3.13,-136.95 39.12,-186.98 -31.87,-27.08 -50.39,-70.12 -43.34,-95.21 7.1,-25.23 -7.85,-56.37 -1.75,-75.89 47.43,-151.35 110.79,-100.64 186.49,-157.95 6.09,-4.61 15.48,-2.63 23.95,-2.71 16.47,-17.49 29.84,-50.43 35.01,-69.71 56.82,-212 137.83,-221.06 296.85,-207.22 8.81,0.77 17.86,2.79 27.05,5.59 7.61,-6.24 14.27,-12.46 18.2,-18.8 99.29,-159.8 154.66,-112.97 307.59,-153.54 42.72,-11.32 135.83,46.77 185.75,144.57 56.7,111.1 67,266.15 52.44,297.91l9.16 13.28c-0.16,0.03 -6.94,-15.44 -17.71,-39.77 -56.76,-128.16 -82.3,-220.84 -136.51,-270.58 -52.61,-48.28 -156.94,-32.71 -200.87,-24.35 -154.45,29.41 -194.23,296.63 19.65,457.68l-73.76 0.82z"/>
   <path class="fil4" d="M1300.36 1128.41c-26.49,14.47 -60.68,31.69 -95.95,43.74 -217.05,74.08 -436.58,-104.16 -321.99,-391.05 0.45,-1.13 1.16,-2.08 1.21,-3.07 0.3,-5.2 0.26,-3.59 -0.89,-5.61 -179.1,-264.02 124.72,-297.11 182.65,-362.83 50.01,-98.79 45.64,-120.57 144.42,-203.73 36.46,-30.7 103.09,-62.32 157.41,-50.89 17.23,3.62 40.84,-2.73 66.78,-14.46 114.51,-51.79 200.68,-140.55 345.29,-140.49 170.06,0.06 167.41,157.63 221.14,149.97 27.37,-3.91 53.73,-2.82 78.72,2.44 61.88,13.02 123.26,47.14 162.68,97.76 38.63,49.61 73.05,115.54 81.76,176.41 4.93,34.48 -12.64,68.93 -19.39,101.06 -12.01,57.08 -50.47,177.91 -104.33,258.96 -39.2,58.97 -87.61,98.69 -143.64,87.23 -22.92,-4.69 -118.72,0.6 -211.96,9.84 -82.9,8.22 -161.98,19.36 -182.9,29.06 -12.44,5.77 -23.28,10.54 -33.87,15.19 -49.37,21.71 -94.05,41.36 -137.91,87.58 -28.59,30.13 -51.02,39.2 -75,48.89 -21.37,8.63 -44.34,17.93 -77.01,51.89 -7.65,7.91 -23.97,10.87 -36.12,13.07 -1.28,0.23 -0.58,-0.57 -0.19,-1.07l-0.05 -0.3 -0.88 0.44zm274.43 -590.47c40.29,57.3 72.52,60.83 116.15,64.98 9.61,0.91 8.98,4.58 9.23,6.62 0.43,3.54 -4.52,5.8 -6.75,6.16 -251.11,41.33 -208.51,-369.67 -337.18,-396.72 -35.91,-7.55 -66.07,3.29 -90.46,23.83 -34.14,28.74 -99.44,104.58 -113.42,149.65 -5.88,18.98 -12.47,35.32 -19.61,49.42 -7.4,14.61 -15.48,27 -24.07,37.59 -76.81,35.29 -308.3,34.24 -183.01,274.09 8.97,15.69 8.73,20.1 1.05,37.85 -105.91,244.85 79.26,391.39 260.34,329.59 31.99,-10.93 63.24,-26.67 87.51,-39.92 4.35,-2.37 10.23,-3.48 17.4,-4.78 4.77,-0.86 2.28,7.19 6.74,2.57 40.65,-42.25 69.23,-53.82 95.83,-64.57 18.29,-7.39 35.39,-14.31 55.98,-36.01 51.4,-54.16 100.73,-75.86 155.23,-99.83 11.23,-4.94 22.68,-9.97 33.02,-14.76 26.53,-12.3 112.3,-25 200.23,-33.71 97.53,-9.67 200.1,-14.71 228.02,-8.99 29.55,6.03 60.22,-22.64 87.84,-64.2 49.69,-74.77 85.32,-187.02 96.51,-240.16 5.43,-25.84 5.8,-53.97 1.72,-82.45 -7.43,-51.93 -29.44,-104.44 -62.26,-146.58 -32.03,-41.14 -74.19,-72.15 -122.67,-82.35 -19,-4 -39.12,-4.82 -60.12,-1.81 -93.33,13.36 -82.67,-109.46 -219.17,-124.8 -84.72,-0.03 -151.92,18.29 -200.02,55.9 -112.35,87.83 -130.13,238.36 -14.07,403.39zm-273.5 590.34c0.23,-0.28 0.35,-0.46 -0.05,-0.3l0.05 0.3z"/>
   <path class="fil2" d="M1339.07 1368.15c-86.25,-339.52 -188.62,-187.01 83.68,-476.11 144.52,-153.43 691.94,-209.95 721.56,-31.03 8.77,53 65.59,207.21 35.97,200.98 -246.54,-51.87 -298.9,53.68 -517.82,113.4 -92.97,25.36 -307.8,254.07 -323.39,192.77z"/>
   <path class="fil1" d="M1398.98 959.25c-100.55,329.55 242.71,308.42 309.03,185.31 -107.93,110.77 -234.86,143.4 -268.99,202.56 -6.25,10.82 -53.78,52.19 -76.36,5.44 -25.79,-53.41 -65.82,-68.2 -69.98,-89.94 -0.31,-1.63 -19.29,-29.36 -32.8,-110.63 -13.21,-79.43 55.95,-76.56 38.49,-128.87 -2.76,-8.27 7.49,-52.77 89.83,-74.73l10.8 10.86z"/>
   <path class="fil0" d="M842.14 735.86l39.86 -137.02c12.56,30.1 4.56,51.22 13.59,84.55 9.59,35.47 25.88,62.59 43.91,97.56 29.55,57.27 70.5,118.16 144.25,141.82 53.37,17.12 86.23,2.18 121.77,-4.14 9.82,-1.75 36.38,-2.03 25.25,16.61 -15.26,25.56 -47.24,36.79 -69.19,35.44 0,0 -186.84,33.98 -319.45,-234.82z"/>
   <path class="fil0" d="M1062.52 487.2l102.85 -167.86 1.54 15.82c-51.62,90.28 22.44,312.28 97.25,362.64 31.34,21.09 58,23.83 82.15,19.61 4.36,-0.77 8.67,-1.8 12.95,-3.06 22.32,0.04 23.68,9.69 17.35,22.86 -108.89,78.01 -219.49,-81.73 -251.25,-171.4 -21.92,-61.88 -60.35,-66.26 -62.86,-78.61z"/>
   <path class="fil1" d="M2030.49 284.82c118.97,29.81 164.6,106.36 158.75,230.99 -3.21,68.32 -11.52,148.1 -45.87,257.28 3.88,-5.15 7.72,-10.6 11.5,-16.28 49.69,-74.77 85.32,-187.02 96.51,-240.16 5.43,-25.84 5.8,-53.97 1.72,-82.45 -7.43,-51.93 -29.44,-104.44 -62.26,-146.58 -32.03,-41.14 -74.19,-72.15 -122.67,-82.35 -19,-4 -39.12,-4.82 -60.12,-1.81 -2.29,0.33 -4.57,0.53 -6.83,0.61 -1.06,27.77 -1.25,60.51 20.32,71.21 3.79,1.88 5.11,8.61 8.94,9.56z"/>
   <path class="fil0" d="M1999.14 158.15l-116.67 -74.52 10.11 21.77c15.84,15.71 19.06,38.51 31.94,59.36 62.37,100.96 99.16,247.31 83.56,334.74 1.9,32.9 16.46,31.54 42.2,0 12.39,-73.53 7.85,-183.98 -51.14,-341.35z"/>
   <path class="fil7" d="M1639.16 2164.48l0.02 0.01c2.56,1.7 5.16,3.38 7.8,5.07 7.58,-4.61 15,-9.58 22.24,-14.87 18.95,-13.85 42.72,-34.64 56.92,-53.6l11.98 -16.35 17.11 10.9c27.24,17.35 60.75,84.07 71.13,113.65 3.53,10.06 6.5,20.32 8.71,30.75 1.93,9.16 2.88,18.81 2.94,28.66 44.12,9.24 104.07,25.22 143.7,46.2 9.47,-8.16 20.75,-13.75 34.04,-15.2 21.94,-2.39 45,5.13 62.69,19.34 16.77,-29.26 47.74,-48.63 81.11,-51 18.29,-1.3 33.62,1.33 46.54,6.97 28.9,-41.68 49.09,-72.03 109.98,-111.81 34.35,-51.6 66.07,-106.06 83.26,-163.81l0.19 -0.63 0.19 -0.64 0.19 -0.64 0.19 -0.63 0.19 -0.64 0.02 -0.05 0.35 -1.22 0.18 -0.64 0.19 -0.64 0.18 -0.63 0.18 -0.65 0.18 -0.63 0.03 -0.13 0.14 -0.52 0.17 -0.63 0.18 -0.65 0.17 -0.63 0.17 -0.65 0.17 -0.63 0.07 -0.24 0.1 -0.41 0.17 -0.64 0.16 -0.64 0.16 -0.64 0.16 -0.65 0.17 -0.64 0.08 -0.35 0.08 -0.3 0.15 -0.65 0.16 -0.64 0.16 -0.64 0.15 -0.65 0.15 -0.64 0.12 -0.46 0.03 -0.19 0.15 -0.64 0.14 -0.65 0.15 -0.64 0.15 -0.65 0.14 -0.65 0.14 -0.65 0.14 -0.64 0.14 -0.65 0.13 -0.65 0.14 -0.65 0.13 -0.65 0.27 -1.3 0.13 -0.65 0.13 -0.65 0.13 -0.65 0.13 -0.65 0.25 -1.3 0.13 -0.65 0.13 -0.65 0.12 -0.66 0.12 -0.65 0.13 -0.65 0.05 -0.27 0.07 -0.38 0.12 -0.66 0.12 -0.65 0.11 -0.65 0.12 -0.66 0.11 -0.65 0.07 -0.38 0.04 -0.28 0.11 -0.66 0.11 -0.65c2.1,-12.93 3.38,-26.01 3.75,-39.32 2.1,-82.26 -20.95,-128.71 -36.84,-150.77 -59.16,46.24 -136.91,70.79 -210.15,67.26 -49.54,-2.4 -99.39,-17.87 -138.43,-49.14 -30.84,-24.7 -55.24,-60.26 -57.81,-100.61 -3.78,-59.22 33.71,-89.77 88.39,-70.3 7.69,2.74 18.82,6.54 17.46,17.03 -1.51,11.61 -18.26,12.23 -27.27,14.53 -9.47,2.42 -20.02,6.27 -26.89,13.52 -11.16,11.78 -5.4,33.15 1.08,45.69 14.83,28.73 45.63,48.88 74.72,60.81 82.86,33.98 170.01,6.36 243.4,-37.32 29.18,-17.36 54.07,-45.71 71.36,-74.66 26.55,-44.46 47.09,-112.9 13.21,-159.07 -10.23,-13.95 -25.4,-39.16 -43.11,-41.91 -18.23,-2.83 -49.65,-8.76 -61.21,-22.58l-8.34 -9.96 -27.44 -134.15 -48.15 -50.86 -10.5 -58.87c-2.24,-12.62 -47.79,-41.76 -26.31,-44.42 -2.51,-10.92 -6.85,-24.83 -14.32,-38.47l-5.86 -1.11c-1.27,0.46 -1.97,0.65 -1.97,0.65 0,0 -44.5,-11.27 -106.47,-15.43 -71.02,0.46 -172.62,23.84 -234.61,44.73 -39.12,13.18 -77.18,28.48 -114.07,46.12 -38.88,19.91 -70.91,38.4 -105.01,58.79 -8.44,5.49 -16.81,11.14 -25.1,16.93 -21.34,14.92 -41.53,30.72 -62.07,46.66l-4.93 3.88 -1.38 1.43c14.11,22.9 22.26,49.86 22.26,78.73 0,33.93 -11.25,65.24 -30.21,90.4 39.7,11.42 75.33,44.04 97.92,75.96l-6.5 7.73 0.54 4.85c-2.02,3.44 -6.51,-1.05 -8.46,2.43l-8.87 5.5 -9.86 8.08c-16.82,-27.12 -24.64,-38.64 -52.86,-56.79 -17.26,-11.09 -40.08,-12.03 -59.57,-6.43 -7.11,3.91 -14.59,7.27 -22.34,10.01 -16.72,10.61 -29.02,26.68 -35.6,46.14 -25.72,76.04 5.02,127.81 80.18,143.07 1.75,-6.29 3.29,-12.81 5.96,-19.21 2.11,-5.41 4.65,-10.69 7.42,-15.79 7.69,-14.15 27.33,-47.26 47.74,-37.24 14.27,7.01 10.81,24.21 7.14,36.29l-0.26 0.89 -0.37 0.85c-9.86,22.76 -17.99,46.54 -24.86,70.37l-3.53 12.22 -1.9 -0.07c-62.07,182.52 -50.22,302.75 111.14,409.36z"/>
   <path class="fil8" d="M1497.27 1482.36c2.03,-23.45 55.36,-97.38 17.31,-161.65 -6.05,-10.22 -11.14,-55.89 21.67,-66.61 57.03,-18.6 51.68,-15.9 51.68,73.76 0,14.16 32.74,233.9 12.55,219.5 -45.85,-32.66 -21.81,-20.13 -56.11,-51.06 -8.01,-7.22 -46.88,-16.43 -47.1,-13.95z"/>
   <path class="fil8" d="M1516.42 1686.41c4.8,-20.43 51.3,-103.55 51.3,5.76 0,164.5 34.77,411.62 170.8,446.16 17.8,4.52 40.62,60.68 78,85.99 17.14,11.6 44.88,38.91 90.3,42.11 38.94,2.74 90.74,-21.38 118.58,-24.92 71.83,-9.15 96.11,32.63 250.83,11.05 13.23,-1.85 -88.49,30.04 -92.94,41.06 -10.67,26.37 -126.99,70.7 -248.72,38.78 -44.55,-11.68 -77.17,-38.48 -143.15,-51.32 -150.95,-29.4 -66.04,-72.75 -206,-110.92 -80.13,-21.84 -134.88,-234.13 -114.12,-322.5 4.13,-17.58 7.17,-69.18 23.04,-91.47 4.8,-6.73 20.59,-63.38 22.08,-69.78z"/>
   <path class="fil9" d="M2344.58 1425.67c28.07,3.97 90.17,2.2 104.85,-9.53 26.36,-21.05 2.09,-57.84 -23.16,-80.19 -4.4,-3.9 -5.87,-7.49 -5.23,-10.52 -2.01,-6.74 -1.41,-13.66 2.65,-16.63 19.45,-14.23 32.38,-23.73 31.3,-45.62 -1.69,-34.34 -34.34,-39.03 -73.59,-26.9 -2.98,0.92 -5.7,1.36 -8.18,1.4 -10.86,2.3 -27.26,-3.83 -27.97,-10.42 -1.92,-17.79 -5.04,-27.26 -22.21,-35.92 -21.07,-10.61 -41.26,6.79 -53.24,28.69l0.94 2.12c11.04,24.68 22.29,49.2 32.57,74.21 17.43,42.37 31.8,85.12 41.25,129.3z"/>
   <path class="fil10" d="M2338.62 1451.92c28.07,3.97 90.17,2.2 104.85,-9.52 26.36,-21.05 51,-19.67 25.75,-42.02 -4.4,-3.89 -5.86,-7.48 -5.23,-10.51 -2.01,-6.75 -1.39,-13.67 2.66,-16.64 12.37,-9.04 -0.11,-1.84 -9.33,-22.71 -5.27,-11.92 5.22,-28.08 4.83,-36.03 -1.67,-34.34 -34.34,-39.03 -73.59,-26.9 -2.98,0.92 -5.7,1.36 -8.18,1.4 -10.86,2.3 -40.38,-3.84 -41.09,-10.42 -1.92,-17.79 -5.04,-27.27 -22.21,-35.92 -21.06,-10.61 -28.14,6.78 -40.12,28.69l0.94 2.13c11.04,24.68 22.29,49.2 32.57,74.21 17.43,42.37 18.68,60.06 28.13,104.24z"/>
   <path class="fil9" d="M1475.99 1485.91c4.78,-1.69 10.31,-7.44 15.79,-16.02 3.47,-5.42 27.45,21.95 51.86,20.05 27.02,-2.12 55.01,-33.8 65.12,-46.42 10.77,-13.45 -44.65,-60.03 -42.96,-71.3 0.64,-4.34 -45.35,9.61 -44.97,5.26 4.78,-54.98 -13.3,-109.53 -88.98,-106.3 -71.7,3.07 -75.45,-71.5 -154.47,67.42 -17.28,30.39 -23.72,103.45 -92.85,22.43 -7.26,-8.53 -109.81,-23.21 -130.26,41.37 -27.59,87.16 12.58,154.12 12.54,155.09 -0.01,0.24 -39.98,36 -45.33,42.94 -37.37,48.55 -62.6,118.77 -22.09,169.4 36.29,45.34 104.12,-11.42 138.18,74.99 24.86,63.04 17.57,94.41 118.95,94.41 99.16,0 52.63,-102.4 72.53,19.3 5.51,33.68 139.68,54.36 145.75,28.63 8.48,-35.96 -6.88,-85.63 14.31,-152.5 29.65,-93.52 63.39,-77.07 -9.54,-107.17 -6.94,-2.86 -29.77,-16.04 -31.43,-24.05 -61.02,-12.65 -73.97,-110.19 -63.8,-160.07 6.99,-34.3 66.37,-48.56 91.65,-57.46z"/>
   <path class="fil10" d="M1506.74 1412.88c-15.7,-16.76 -51.2,-63.5 -84.28,-61.07 -156.06,11.49 -45.25,163.75 -180.6,118.92 -65.04,-21.55 -92.92,42.69 -70.9,79.59 17.59,29.47 35.31,74.24 -47.96,94.59 -38.86,9.5 -76.93,26.75 -89.16,61.02 -4.67,13.05 2.37,46.42 19.71,69.6 37.1,49.54 108.62,97.31 124.18,115.38 35.9,41.64 67.39,51.91 102.27,9.4 1.16,-1.4 2.35,-2.68 3.54,-3.87 2.42,-4.66 5.99,-6.87 10.03,-7.32 24.93,-12.2 48.9,17.06 24.08,47.02 -4.86,17.28 25.28,45.61 38.17,59.51 25.89,27.93 72.09,-9.26 100.96,-34.9 -0.8,-6.32 -1.45,-12.73 -1.92,-19.24 -5.41,-75.26 13.31,-122.66 40.72,-186.51 -67.17,-12.81 -132.7,-60.62 -137.64,-132.81 -5.59,-81.58 32.74,-139.11 108.61,-153.55 16.27,-11.17 100.05,25.02 107.2,8.76 2.56,-5.82 -59.44,-49.87 -67,-64.48z"/>
   <path class="fil11" d="M1755.04 2140.88c0,0 -116.58,99.41 -269.16,90.54 -117.12,-6.82 -180.51,-60.77 -152.16,-126.86 37.62,-87.66 163.06,-95.41 163.06,-95.41l9.97 3.09c19.63,56.1 61.63,105.49 132.41,152.24l0.02 0.01c2.56,1.7 5.16,3.38 7.8,5.07 7.58,-4.61 15,-9.58 22.24,-14.87 16.54,-12.09 36.74,-29.46 51.06,-46.28l34.77 32.48z"/>
   <path class="fil11" d="M2578.89 1997.55c0,0 -63.86,49.15 -92.6,100.36 -9.63,17.16 -18.2,36.98 -24.44,58.85 -30.15,-7.72 -69.22,0.9 -114.95,32.79 -94.63,65.97 -164.35,96.75 -220.11,157.31 -19.66,-1.87 -31.69,-3.28 -31.69,-3.28l26.33 -64.99c11.82,-5.93 24.79,-9.59 38.13,-10.55 18.29,-1.3 33.62,1.33 46.54,6.97 28.9,-41.68 49.09,-72.03 109.98,-111.81 34.35,-51.6 66.07,-106.06 83.26,-163.81l0.19 -0.63 0.19 -0.64 0.19 -0.64 0.19 -0.63 0.19 -0.64 0.02 -0.05 0.35 -1.22 0.18 -0.64 0.19 -0.64 0.18 -0.63 0.18 -0.65 0.18 -0.63 0.03 -0.13 0.14 -0.52 0.17 -0.63 0.18 -0.65 0.17 -0.63 0.17 -0.65 0.17 -0.63 0.07 -0.24 0.1 -0.41 0.17 -0.64 0.16 -0.64 0.16 -0.64 0.16 -0.65 0.17 -0.64 0.08 -0.35 0.08 -0.3 0.15 -0.65 0.16 -0.64 0.16 -0.64 0.15 -0.65 0.15 -0.64 0.12 -0.46 0.03 -0.19 0.15 -0.64 0.14 -0.65 0.15 -0.64 0.15 -0.65 0.14 -0.65 0.14 -0.65 0.14 -0.64 0.14 -0.65 0.02 -0.1c4.69,-0.74 9.35,-1.28 13.96,-1.55 103.39,-6.18 159.1,24.87 159.1,24.87z"/>
   <path class="fil4" d="M1754.54 1314.72c0,0 4.78,-107.22 68.08,-138.82 81.59,-40.77 150.94,2.46 163.39,63.91 0,0 -47.6,-18.16 -118.42,-0.88 -74.8,18.24 -113.05,75.79 -113.05,75.79z"/>
   <path class="fil0" d="M1773.14 1847.01c-2.92,4.04 -5.56,7.88 -7.03,9.98 -9.57,13.62 -18.06,27.89 -27.54,41.51 -6.48,9.34 -16.27,23.1 -29.22,21.85 -4.89,-0.47 -9.02,-2.97 -12.23,-6.59 -26.37,-29.62 69.56,-134.16 88.95,-153.49 28.49,-28.42 51.06,-65.35 94.13,-71.31l2.54 -0.35 2.43 0.83c8.52,2.9 15.52,10.51 15.58,19.87 0.1,17.52 -41.58,40.8 -61.3,65.25 8.35,15.87 20.93,32.91 31.93,45.79 96.92,113.45 248.62,140.45 370.93,44.04l18 20.36 -1.63 15.57c-8.49,81.15 -48.23,187.12 -117.26,234.45 -123.08,84.36 -240.03,16.26 -304.67,-98.15 -30.01,-53.11 -52.16,-126.66 -63.62,-189.61zm37.38 -12.49c38.08,32.22 73.83,76.92 115.64,102.24 89.84,54.43 179.32,67.55 283.75,2.27 -13.46,51.95 -14.33,65.52 -37.92,97.5 -61.05,82.7 -133.74,97.04 -205.3,56.56 -78.65,-44.5 -122.01,-173.16 -156.16,-258.57z"/>
   <path class="fil4" d="M2107.5 2219.95c-43.94,17.54 -115.63,5.05 -130.86,-0.85 -15.21,-5.88 -33.79,29.5 27.48,38.15 61.28,8.62 95.8,-1.12 108.95,-6.07 33.63,-12.6 16.44,-40.01 -5.58,-31.23z"/>
   <path class="fil4" d="M2223.68 1903.6c0,0 19.35,-0.29 12.88,-32.3 -8.1,-39.89 -28.88,-63.14 -28.88,-63.14l38.45 -4.85c0,0 45.83,96.2 8.29,112.33 -27.6,11.85 -27.88,24.81 -27.88,24.81l-2.85 -36.85z"/>
   <path class="fil6" d="M2231.68 1205.37c0,0 -15.36,-56.78 -61.51,-56.81 -46.15,-0.02 -70.02,46.69 -75.11,75.43 0,0 29.21,-15.62 77.98,-21.05 30.25,-3.37 58.64,2.42 58.64,2.42z"/>
   <path class="fil11" d="M1349.99 2185.03c0,0 44.16,139.29 133.74,220.63 89.58,81.33 299.98,-32.52 299.98,-32.52 0,0 36.54,-61.06 24.24,-121.45 -12.3,-60.39 -54.2,-121.54 -67.82,-130.63 0,0 -80.14,112.77 -218.94,117.61 -131.17,4.58 -171.21,-53.63 -171.21,-53.63z"/>
   <path class="fil6" d="M1977.47 1525.16c0,0 27.63,-65.39 8.72,-143.84 -21.9,-90.98 -138.65,-98.88 -165.19,2.79 -27.92,106.85 -7.76,139.28 -7.76,139.28l164.23 1.77z"/>
   <path class="fil12" d="M1953.25 1508.75c0,0 18.13,-50.06 5.73,-110.11 -14.38,-69.66 -90.98,-75.7 -108.4,2.13 -18.32,81.8 -5.1,106.62 -5.1,106.62l107.76 1.36z"/>
   <path class="fil5" d="M1934.07 1508.75c0,0 16.6,-45.85 5.24,-100.85 -13.17,-63.8 -83.34,-69.33 -99.29,1.95 -16.79,74.93 -4.67,97.66 -4.67,97.66l98.71 1.25z"/>
   <path class="fil6" d="M1922.89 1523.02c0,0 15.74,-40.65 3.87,-91.99 -13.76,-59.54 -87.08,-64.7 -103.74,1.83 -17.54,69.93 -4.88,91.14 -4.88,91.14l104.74 -0.99z"/>
   <path class="fil2" d="M1888.31 1422.35c11.04,0 19.98,8.94 19.98,19.98 0,11 -8.94,19.94 -19.98,19.94 -11,0 -19.94,-8.94 -19.94,-19.94 0,-11.04 8.94,-19.98 19.94,-19.98z"/>
   <path class="fil2" d="M1859.99 1461.42c5.35,0 9.66,4.35 9.66,9.67 0,5.35 -4.31,9.66 -9.66,9.66 -5.32,0 -9.64,-4.31 -9.64,-9.66 0,-5.32 4.32,-9.67 9.64,-9.67z"/>
   <path class="fil2" d="M1810.53 1834.52c38.08,32.22 73.83,76.92 115.64,102.24 89.84,54.43 179.32,67.55 283.75,2.27 -13.46,51.95 -14.33,65.52 -37.92,97.5 -61.05,82.7 -133.74,97.04 -205.3,56.56 -78.65,-44.5 -122.01,-173.16 -156.16,-258.57z"/>
   <path class="fil13" d="M1945.84 2347.31c0,0 -46.89,-34.56 -157.92,-56.75 -117.36,-23.47 -248.15,44.12 -251.39,138.41 -3.25,94.32 74.06,133.66 74.06,133.66 0,0 -63.66,69.94 -27.5,159.44 36.15,89.51 160.99,113.85 251.86,11.67 150.01,-168.74 302.1,-29.82 331.93,-59.21 29.82,-29.39 35.6,-138.03 120.31,-82.93 84.72,55.06 158,152.23 263.86,-9.82 79.63,-92.85 23.95,-187 -18.22,-223.6l-49.93 11.74c0,0 53.57,-28.27 46.12,-116.35 -7.48,-88.06 -77.33,-137.06 -182.1,-64.01 -104.79,73.06 -179.05,102.96 -237.61,177.93 -58.57,74.99 -163.44,-20.16 -163.44,-20.16z"/>
   <path class="fil13" d="M2096.89 2372.9c0,0 -22.16,-59.59 -75.03,-54.33 -52.87,5.29 -82.79,115.86 -49.62,211.24 33.17,95.4 106.61,112.84 163.4,101.69 56.79,-11.16 134.73,-58.57 124.84,-170.02 -9.9,-111.46 -32.19,-177.23 -92.7,-169.44 -60.52,7.8 -70.89,80.86 -70.89,80.86z"/>
   <path class="fil14" d="M2090.36 2363.05c-11.36,-10.2 -49.97,-46.61 -68.5,-44.45 -52.88,6.18 -82.79,135.31 -49.62,246.7 32.06,107.71 138.75,108.04 194.66,97.67 -31.63,-8.48 -100.12,-19.56 -117.13,-97.67 -19.79,-90.77 14.94,-164.05 40.59,-202.25z"/>
   <path class="fil0" d="M1817.8 1491.23c-23.01,6.52 -76.78,30.52 -96.04,47.05 -2.48,2.13 2.63,2.45 23.97,-1.03 9.37,-1.52 69.7,-14.09 79.83,-13.22 11.12,0.95 -7.76,-19.87 -7.76,-32.8z"/>
   <path class="fil0" d="M1823.77 1489.11c-17.87,-2.67 -62.36,-2.9 -80.76,2.48 -2.37,0.69 1.05,2.51 16.82,6.76 6.92,1.87 52.36,12.01 59.06,15.76 7.36,4.12 0.85,-16.1 4.88,-25z"/>
   <path class="fil8" d="M2051.98 1635.04c37.32,13.68 25.09,68.28 89.13,85.32 82.75,22.01 148.16,12.51 233.96,-30.06 97.61,-48.43 67.14,-85.8 55.69,-7.3 -15.87,108.84 -219.88,145.15 -307.58,127.41 -91.05,-18.43 -104.92,-31.93 -136.81,-124.06 -17.87,-51.63 51.93,-56.32 65.61,-51.3z"/>
   <path class="fil15" d="M1713.91 2301.8c-139.58,90.89 -92.37,173.06 -31.45,205.13 34.51,18.16 24.22,2.89 0.24,75.85 -58.65,178.44 171.2,133.22 227.1,90.38 -17.96,15.92 -41.49,23.26 -57.98,40.14 -30.59,31.31 -78.29,57.25 -123.18,60.35 -48.44,3.34 -100.34,-17.15 -121.68,-65.22 -13.86,-31.24 -13.68,-63.08 -0.46,-94.14 5.7,-13.41 15.95,-30.47 26.29,-40.78 4.94,-4.94 7.21,-12.28 5.97,-19.32 -1.25,-7.1 -5.81,-13.12 -12.18,-16.06 -9.28,-5.17 -21,-17.14 -27.93,-26.26 -18.43,-24.27 -25.91,-53.33 -24.76,-83.84 1.31,-34.61 23.06,-65.15 48.46,-85.7 26.41,-21.39 58.44,-34.29 91.56,-40.52z"/>
   <path class="fil15" d="M2233.45 2286.43c15.18,-15.55 48.31,-98.53 54.17,-58.59 1.83,12.53 20.28,95.88 22.66,115.91 3.12,26.22 6.07,15.66 6.07,55.85 0,19.45 4.19,192.07 -1.7,193.7 -87.09,24 -36.17,-74.83 -57.74,-153.1 -3.75,-13.6 -35.55,-126.61 -31.22,-130.87 4.94,-4.86 5.87,-20.98 7.75,-22.91z"/>
   <path class="fil12" d="M2205.6 1470.68c2.78,-19.84 3.93,-46.56 -2.07,-75.62 -13.53,-65.56 -82.19,-74.74 -104.73,-10.69 9.91,31.28 29.43,57.92 63.42,78.4 11.54,6.95 26.99,8.77 43.37,7.91z"/>
   <path class="fil5" d="M2191.09 1470.71c2.4,-17.14 3.4,-40.24 -1.79,-65.35 -11.69,-56.65 -71.03,-64.59 -90.5,-9.23 8.56,27.02 25.43,50.06 54.81,67.75 9.97,6 23.32,7.58 37.49,6.83z"/>
   <path class="fil6" d="M2223.17 1494.23c2.51,-13.63 11.05,-45.96 4.54,-98.43 -8.88,-71.68 -108.36,-107.54 -134.29,-30.47 -9.39,27.93 -10.08,48.56 -8.45,72.81l13.68 19.94c-0.47,-20.53 1.59,-44.34 9.09,-68.84 20.6,-67.28 92.46,-42.79 99.52,19.8 4.72,41.74 -3.99,72.07 -5.8,85.2l21.72 0z"/>
   <path class="fil6" d="M2172.84 1486.7c0,0 13.81,-34.06 4.36,-74.91 -10.95,-47.38 -69.3,-51.5 -82.56,1.45 -7.68,55.65 30.51,69.71 28.59,69.71l49.61 3.75z"/>
   <path class="fil2" d="M2125.83 1430.02c4.24,0 7.68,3.43 7.68,7.67 0,4.27 -3.44,7.7 -7.68,7.7 -4.26,0 -7.7,-3.43 -7.7,-7.7 0,-4.24 3.44,-7.67 7.7,-7.67z"/>
   <path class="fil2" d="M2146.94 1401.03c8.79,0 15.9,7.14 15.9,15.9 0,8.78 -7.1,15.9 -15.9,15.9 -8.76,0 -15.89,-7.11 -15.89,-15.9 0,-8.76 7.13,-15.9 15.89,-15.9z"/>
   <path class="fil4" d="M1805.57 1814.47l0.05 1.84c4.49,62.64 263.27,359.21 395.08,119.8 5.6,-10.17 11.65,-21.15 18.73,-33.07l22.05 3.01c-6.78,11.42 -11.58,10.34 -17.11,20.4 -12.36,77.93 -60.44,128.64 -108.09,151.21 -22.72,10.77 -41.67,21.15 -57.62,22.27 -171.22,11.98 -297.43,-288.4 -279.99,-281.7l-0.15 -3.75 27.05 0z"/>
   <path class="fil13" d="M2005.13 2054.67c-25.46,-16.45 -44.68,-6.46 -24.51,29.97l0.81 1.43c16.32,6.82 33.31,11.47 50.85,13.31l0.18 0.02 0.17 0.01c3.97,0.35 7.95,0.62 11.97,0.78 4.65,0.13 9.34,0.05 14.06,-0.24 15.3,-0.94 34.23,-6.97 53.9,-17.6 -5.69,-10.9 -15.99,-21.03 -29.49,-27.27 -35.42,-16.38 -24.89,17.58 -38.44,19.98 -13.57,2.37 -14.05,-3.94 -39.49,-20.39z"/>
   <path class="fil4" d="M1490.68 1706.82c1.75,-6.29 3.29,-12.81 5.96,-19.21 2.11,-5.41 4.65,-10.69 7.42,-15.79 7.69,-14.15 27.33,-47.26 47.74,-37.24 14.27,7.01 10.81,24.21 7.14,36.29l-0.26 0.89 -0.37 0.85c-79.08,182.53 -117.85,364.96 88.67,496.96 7.58,-4.61 15,-9.58 22.24,-14.87 18.95,-13.85 42.72,-34.64 56.92,-53.6l11.98 -16.35 17.11 10.9c27.24,17.35 60.75,84.07 71.13,113.65 3.53,10.06 6.5,20.32 8.71,30.75 1.93,9.16 2.88,18.81 2.94,28.66 44.12,9.24 104.07,25.22 143.7,46.2 9.47,-8.16 20.75,-13.75 34.04,-15.2 21.94,-2.39 45,5.13 62.69,19.34 16.77,-29.26 47.74,-48.63 81.11,-51 18.29,-1.3 33.62,1.33 46.54,6.97 28.9,-41.68 49.09,-72.03 109.98,-111.81 34.35,-51.6 66.07,-106.06 83.26,-163.81l0.19 -0.63 0.19 -0.64 0.19 -0.64 0.19 -0.63 0.19 -0.64 0.02 -0.05 0.35 -1.22 0.18 -0.64 0.19 -0.64 0.18 -0.63 0.18 -0.65 0.18 -0.63 0.03 -0.13 0.14 -0.52 0.17 -0.63 0.18 -0.65 0.17 -0.63 0.17 -0.65 0.17 -0.63 0.07 -0.24 0.1 -0.41 0.17 -0.64 0.16 -0.64 0.16 -0.64 0.16 -0.65 0.17 -0.64 0.08 -0.35 0.08 -0.3 0.15 -0.65 0.16 -0.64 0.16 -0.64 0.15 -0.65 0.15 -0.64 0.12 -0.46 0.03 -0.19 0.15 -0.64 0.14 -0.65 0.15 -0.64 0.15 -0.65 0.14 -0.65 0.14 -0.65 0.14 -0.64 0.14 -0.65 0.13 -0.65 0.14 -0.65 0.13 -0.65 0.27 -1.3 0.13 -0.65 0.13 -0.65 0.13 -0.65 0.13 -0.65 0.25 -1.3 0.13 -0.65 0.13 -0.65 0.12 -0.66 0.12 -0.65 0.13 -0.65 0.05 -0.27 0.07 -0.38 0.12 -0.66 0.12 -0.65 0.11 -0.65 0.12 -0.66 0.11 -0.65 0.07 -0.38 0.04 -0.28 0.11 -0.66 0.11 -0.65c2.1,-12.93 3.38,-26.01 3.75,-39.32 2.1,-82.26 -20.95,-128.71 -36.84,-150.77 -59.16,46.24 -136.91,70.79 -210.15,67.26 -49.54,-2.4 -99.39,-17.87 -138.43,-49.14 -30.84,-24.7 -55.24,-60.26 -57.81,-100.61 -3.78,-59.22 33.71,-89.77 88.39,-70.3 7.69,2.74 18.82,6.54 17.46,17.03 -1.51,11.61 -18.26,12.23 -27.27,14.53 -9.47,2.42 -20.02,6.27 -26.89,13.52 -11.16,11.78 -5.4,33.15 1.08,45.69 14.83,28.73 45.63,48.88 74.72,60.81 82.86,33.98 170.01,6.36 243.4,-37.32 29.18,-17.36 54.07,-45.71 71.36,-74.66 26.55,-44.46 47.09,-112.9 13.21,-159.07 -10.23,-13.95 -23.02,-26.02 -40.73,-28.79 -18.23,-2.84 -39.53,4.55 -56.43,10.82 -25.94,9.63 -50.53,20.16 -77.53,27.02 -92.82,23.56 -157.35,-13.36 -184.91,-105.51 -7.1,-23.71 -10.14,-48.82 -9.97,-73.53 0.4,-60.91 24.43,-152.88 87.33,-178.16 11.91,-4.8 35.71,-11.95 57.19,-14.6 -2,-8.71 -5.16,-19.32 -10.16,-30.2 -5.63,2.31 -20.25,-3.62 -28.76,-5.41 -251.4,-23.4 -453.42,73.23 -635.23,202.49 10.23,17.41 17.06,37.06 19.56,58.05l-45.85 0c-10.34,-36.46 -43.58,-66.48 -100.53,-66.48 -130.89,0 -110.4,168.79 -164,122.28 -27.57,-23.93 -58.75,-37.68 -96.43,-26.8 -46.7,13.49 -77.32,69.15 -65.64,119.19 7.8,33.49 12.33,26.98 31.28,41.26 16.1,12.16 7.79,43.28 -9.84,47.59 -42.69,10.42 -77.26,29.35 -90.71,66.99 -21.1,59.05 26.99,116.02 101.58,122.93 1.41,0.13 2.75,0.3 4.08,0.49l1.02 -3.76c10.77,-38.32 51.45,-6.29 46.2,11.68 -9.17,31.31 -8.73,67.51 14.16,94.06 35.9,41.65 97.81,34.03 132.7,-8.49 1.16,-1.41 2.34,-2.69 3.53,-3.87 2.43,-4.66 6,-6.87 10.04,-7.32 24.93,-12.2 48.89,17.06 24.08,47.02 -4.86,17.28 -6.94,34.86 5.95,48.77 25.9,27.93 73.87,19.35 102.75,-6.28 -0.81,-6.32 -1.45,-12.74 -1.92,-19.24 -5.42,-75.26 13.31,-122.66 40.71,-186.51 -67.16,-12.8 -132.69,-60.62 -137.64,-132.81 -5.18,-75.65 27.41,-130.62 92.68,-149.72 55.84,-12.12 39.06,-10.34 93.3,5.34 98.27,41.17 101.45,114.15 42.51,98.82 -21.14,-5.5 -10.36,-32.71 -51.25,-59 -17.26,-11.09 -40.08,-12.03 -59.57,-6.43 -7.11,3.91 -14.59,7.27 -22.34,10.01 -16.72,10.61 -29.02,26.68 -35.6,46.14 -25.72,76.04 5.02,127.81 80.18,143.07zm-210.2 -427.11c-13.97,-38.06 -26.96,-65.49 -37.08,-86.87 -17.61,-37.21 -27.92,-58.99 -22.9,-87.61 35.73,-203.44 726.32,-481.56 913.61,-305.12 11.48,10.81 82.9,264.49 106.04,339.16 2.3,2.65 3.47,6.12 3.21,10.54 1.63,5.44 3.24,10.86 4.87,16.21 1.47,4.84 3.14,9.7 4.94,14.55 22.91,-26.59 60.33,-42.38 90.75,-27.04 14.06,7.1 24.12,22.62 30.54,39.14 3.83,-1.9 8.27,-3.35 13.36,-4.16 55.45,-8.77 102.32,22.6 104.66,70.07 1.15,23.37 -8.72,46.29 -25.64,64.59 3.89,2.41 7.52,5.51 10.59,9.36 29.1,36.44 32.03,88.44 -4.4,117.54 -8.95,7.14 -20.26,12.34 -32.26,15.53 8.98,9.29 16.46,20.18 22.1,31.84 25.46,52.7 15.25,115.57 -6.6,167.57 -12.9,30.72 -32.09,57.93 -55.56,81.1 13.45,15.25 25.23,32.83 33.22,48.39 26.14,50.85 30.9,105.77 21.72,159.79 10.97,-0.15 21.95,0.06 32.9,0.69 27.96,1.63 77.43,8.56 101.8,24.21l26.48 16.48 -24.93 19.21c-38.44,28.51 -74.29,70.6 -96.75,112.51 -1.19,2.23 -2.33,4.45 -3.43,6.66 9.79,6.34 18.6,14.54 26.23,24.77 35.1,47.14 32.6,117.67 27.53,174.06 8.16,14.86 18.57,27.76 28.63,41.32 27.79,37.45 39.32,68.49 38.06,116.4 -8.06,305.9 -276.83,153.86 -365.55,145.22 -20.98,37.89 -57.96,63.49 -113.03,74.51 -48.54,9.73 -87.06,5.8 -117.73,-12.16 -56.34,19.21 -90.97,8.2 -136.44,54.76 -39.46,40.4 -91.46,60.02 -147.58,63.89 -66.28,4.57 -132.81,-26.21 -162.66,-90.36 -16.9,-36.34 -20.59,-75.28 -8.93,-113.62 5.19,-17.03 14.09,-35.19 25.37,-50.2 -38.82,-28.43 -65.15,-70.82 -69.16,-120.07 -19.31,-5.36 -37.43,-14.23 -52.93,-27.81 -62.03,-54.31 -119.12,-151.58 -144.96,-230.16l-3.11 -9.47c-3.47,-7.18 -6.02,-15.01 -7.61,-23.13l-1.03 -3.14 0.35 -0.76c-3.4,-21.58 -0.13,-44.73 10.48,-62.81 17.52,-29.82 43.82,-52.16 74.03,-68.01 -30.92,3.05 -60.91,-3.4 -80.03,-24.03 -10.48,-11.3 -14.91,-28.07 -15.8,-46.01 -56.92,28.09 -130.06,28.16 -170.24,-18.48 -18.59,-21.56 -24.76,-54.32 -24.18,-86.36 -7.55,0.04 -16.01,-0.92 -25.37,-3.16 -99.54,-23.89 -156.61,-109.43 -127.45,-191.01 14.16,-39.6 46.03,-71.01 86.47,-90.11 -6.17,-6.68 -11.28,-15.27 -14.38,-25.99 -23.6,-81.68 7.73,-171.33 89.4,-194.93 42.88,-12.39 97.7,-2.33 136.79,20.02 3.62,-29.3 15.68,-55.98 33.65,-77.54zm891.07 -230.01c-13.11,-56.76 -41.68,-179.44 -74.43,-210.28 -167.84,-158.12 -791.39,93.13 -823.36,275.11 -2.08,11.87 5.5,27.9 18.46,55.27 9.04,19.08 20.23,42.73 32.37,73.78l1.64 -0.88c70.1,-19.11 116.57,-5.17 149.16,5.51 2.51,1.55 13.9,10.79 16.3,12.49 171.08,-133.09 475.07,-242.92 679.86,-211zm173.02 375.97c28.07,3.97 90.17,2.2 104.85,-9.53 26.36,-21.05 2.09,-57.84 -23.16,-80.19 -4.4,-3.9 -5.87,-7.49 -5.23,-10.52 -2.01,-6.74 -1.41,-13.66 2.65,-16.63 19.45,-14.23 32.38,-23.73 31.3,-45.62 -1.69,-34.34 -34.34,-39.03 -73.59,-26.9 -2.98,0.92 -5.7,1.36 -8.18,1.4 -10.86,2.3 -27.26,-3.83 -27.97,-10.42 -1.92,-17.79 -5.04,-27.26 -22.21,-35.92 -21.07,-10.61 -41.26,6.79 -53.24,28.69l0.94 2.12c11.04,24.68 22.29,49.2 32.57,74.21 17.43,42.37 31.8,85.12 41.25,129.3zm-91.95 898.19c37.51,-27.54 150.89,-108.41 156.13,-83.27 1.03,4.97 -28.2,10.42 -66.46,34.03 -31.96,19.75 -65.87,52.62 -81.8,68.9 7.38,21.94 10.09,192.29 5.46,229.59 45.71,6.53 315.78,166.47 296.64,-86.66 -2.76,-36.36 -23.66,-80.41 -56.43,-98.84 -7.6,8.53 -22.84,27.27 -30.35,34.24 -8.18,7.58 -20.74,7.23 -28.62,-0.84 -7.87,-8.04 -8.41,-21.01 -1.25,-29.59l27.17 -32.47c19.52,-28.74 34.81,-74.21 31.64,-108.28 -4.35,-46.75 -24.82,-79.14 -72.86,-82.79 -26.31,-2.01 -65.66,14.37 -87.46,28.2 -64.47,40.92 -78.29,70.29 -101.45,110.68 3.59,5.32 6.78,11.05 9.64,17.09zm-310.91 75.05c-4.88,-1.12 -10.55,-1.66 -16.49,-1.75 -20.37,-0.3 -42.4,-1.7 -42.89,-6.84 -1.16,-12.12 37.09,-7.74 62.53,-7.14l0.08 -0.34c1.7,-7.04 3.88,-14.29 6.58,-21.45 -14.2,-9.12 -28.9,-17.5 -43.91,-25.05 -46.85,-23.56 -100.17,-40.57 -152.48,-38.98 -46.94,1.45 -95.48,14.74 -132.8,44.95 -25.4,20.55 -47.15,51.09 -48.46,85.7 -1.15,30.51 6.34,59.56 24.76,83.84 6.93,9.12 18.65,21.08 27.93,26.26 6.37,2.94 10.93,8.96 12.18,16.06 1.24,7.04 -1.03,14.38 -5.97,19.32 -10.34,10.32 -20.59,27.38 -26.29,40.78 -13.21,31.06 -13.4,62.9 0.46,94.14 21.34,48.07 73.23,68.56 121.68,65.22 44.89,-3.1 87.26,-32.24 117.86,-63.55 39.89,-40.84 70.78,-35.09 120.92,-61.49 -9.94,-16.22 -18.53,-35.39 -25.95,-57.61 -8.99,-26.9 -1.77,-111.74 -2.8,-141.13 -14.42,-2.07 -35.54,-3.46 -63.99,-1.43 -60.7,4.35 -82.88,6.98 -124.49,24.08 -41.59,17.12 -18.34,-12.51 11.9,-22.39 0,0 73.64,-31.66 176.64,-21.5 0.42,-10.03 1.41,-19.97 3,-29.72zm265.27 -1234.01c-12.64,-0.54 -25.67,0.25 -36.01,3.05 -54.47,14.71 -75.8,77.42 -79.64,127.63 -5.37,70.32 8,129.32 70.87,167.19 29.63,17.84 85.04,1.91 116,-6.56 7.26,-1.98 14.76,-4.13 22.38,-6.25 -9.07,-51.23 -28.83,-127.09 -50.98,-172.99 -16.27,-33.72 -31.93,-78.74 -42.62,-112.07zm239.67 828.21c-2.6,8.97 -5.55,17.89 -8.81,26.72 -13.24,35.87 -29.69,71.55 -48.81,106.5 18.13,-6.43 36.12,-10.43 50.66,-9.2 5.14,0.44 10.17,1.15 15.09,2.15 11.31,-25.67 25.1,-50.51 40.09,-73.72 6.17,-9.55 16.47,-25.06 26.76,-38.16 -22.84,-7.18 -53.2,-13.04 -75,-14.29zm-926 401.75c10.16,-34.45 35.47,-62.83 64.04,-83.21 43.94,-31.35 99.44,-47.73 152.51,-51.39 21.11,-1.45 42.39,-0.93 63.43,1.76 -0.35,-2.55 -0.82,-5.1 -1.43,-7.64 -9.85,-40.65 -26.54,-64.68 -52.83,-91.45 -17.86,15.1 -44.67,31.87 -59.53,40.35 -43.86,25.01 -94.02,44.1 -144.7,47.53 -40.69,2.75 -85.05,1.59 -125.76,-8.79l0 0.88c-12.81,-3.24 -25.49,-7.36 -37.43,-12.55 28.17,57.47 65.44,111.5 117.62,148.69 8.6,6.13 16.22,11.51 24.1,15.81zm-43.54 -343.53c-13.72,-0.13 -27.42,0.68 -40.95,3 -34.98,6.01 -65.51,21.5 -85.24,51.96 -9.1,14.06 -2.98,38.77 4.63,52.28 10.74,19.05 34.78,31.4 60.81,39.24l0 1.05c20.59,6.25 42.41,9.42 63.21,10.62 12.07,0.7 24.2,0.78 36.29,0.37 30.75,-1.04 60.29,-7.6 88.12,-18.74 -11.54,-7.82 -22.77,-16.09 -33.62,-24.91 -40.79,-33.17 -72.26,-71.2 -93.25,-114.88zm649.48 606.66c162,-31.86 85.46,-325.46 64.05,-336.68 -7.51,-3.94 -15.78,-4.51 -23.98,-3.45 -21.48,2.77 -41.21,17.95 -43.82,41.15 -2.07,18.34 24.26,37.2 10.02,61.06 -2.46,4.13 -6.24,7.15 -10.83,8.32 -15.04,3.85 -24.42,-12.84 -31.26,-23.7 -7.53,-11.98 -14.82,-24.02 -23.51,-35.17 -8.6,-11.04 -23.69,-28.05 -38.93,-26.53 -22.54,2.25 -35.69,36.89 -40.39,55.89 -9.63,38.99 -19.37,139.65 -6.18,177.58 23.2,66.75 79.78,94.33 144.83,81.54z"/>
   <path class="fil0" d="M1544.56 1338.2c47.93,0 86.78,38.46 86.78,85.9 0,47.44 -38.85,85.89 -86.78,85.89 -29.04,0 -54.74,-14.11 -70.5,-35.79l7.86 -10.29 17.89 2.85c8.61,11.81 23.72,4.28 44.74,4.28 21.01,0 47.42,-21.02 47.42,-46.93 0,-25.93 -32.63,-46.93 -47.42,-46.93 -8,0 -15.71,2.25 -22.66,6.18 -5.89,3.33 -22,-1.51 -22.53,-26.06l6.71 -10.19c11.6,-5.69 24.66,-8.89 38.48,-8.89z"/>
  </g>
 </g>
</svg>
